<?xml version="1.0" encoding="utf-8"?>
<!-- Generator: Adobe Illustrator 28.3.0, SVG Export Plug-In . SVG Version: 6.00 Build 0)  -->
<svg version="1.1" id="Capa_1" xmlns="http://www.w3.org/2000/svg" xmlns:xlink="http://www.w3.org/1999/xlink" x="0px" y="0px"
	 viewBox="0 0 287.1 48.3" style="enable-background:new 0 0 287.1 48.3;" xml:space="preserve">
<style type="text/css">
	
		.st0{clip-path:url(#SVGID_00000099657772445584318770000003562788408146947970_);fill:url(#SVGID_00000168083913126327396650000000993506791434921606_);}
	
		.st1{clip-path:url(#SVGID_00000155127623251642632640000010481031565144936596_);fill:url(#SVGID_00000034060326366900622700000017581515835211126975_);}
	
		.st2{clip-path:url(#SVGID_00000176723070068564427120000000709740495717932469_);fill:url(#SVGID_00000093142987719868345650000006940973985532416447_);}
	
		.st3{clip-path:url(#SVGID_00000080187027541642678500000010039249254911322763_);fill:url(#SVGID_00000129189329801934738620000008500297473471596974_);}
	
		.st4{clip-path:url(#SVGID_00000024714208568898419180000017994335612676091266_);fill:url(#SVGID_00000109713085162025621910000007766505169643408787_);}
	
		.st5{clip-path:url(#SVGID_00000137837285409816990590000014648221925063984046_);fill:url(#SVGID_00000011728024213790624460000013539951529042586265_);}
	
		.st6{clip-path:url(#SVGID_00000103223834889146263680000004393337827654858936_);fill:url(#SVGID_00000003826436549907735810000011761809200232682890_);}
	
		.st7{clip-path:url(#SVGID_00000045599501503980159490000002026129556337440150_);fill:url(#SVGID_00000119823091823918621990000006567679392539668143_);}
	
		.st8{clip-path:url(#SVGID_00000023973789702144186900000017968082223386653874_);fill:url(#SVGID_00000132780317043977424490000000516961313221945535_);}
	
		.st9{clip-path:url(#SVGID_00000166660824560429434650000005241076647943602080_);fill:url(#SVGID_00000029007765181877814050000009771690971523320978_);}
	.st10{fill:#3D1A03;}
</style>
<g>
	<defs>
		<path id="SVGID_1_" d="M23.2,24.6c-2.7-1-6.2-3.6-7.2-6.9c-5-3.1,1.3-7.8,0.1-9.6c1.6,1.1,2.7,2.9,2.8,4.9c0.1,2-0.5,3.6-1.9,4.8
			c-1.6-3.3,0-5.2-0.4-6.4c0.1,0.6-0.1,1.1-0.3,1.7c-1.5,4.5,2.6,8.8,6.6,10.5L22.8,23c-0.5-2-2.9-10.9,2-15.5
			c-1.7,2.9-2.1,5.5-1.9,8.1c1.7-0.8,5.1-2.7,5.6-4.9c0.2-0.6,0.3-1.3,0.4-1.8c0.1-0.6,0.2-1.2,0.5-1.7c-0.9,1-0.2,3.6-3.1,5.8
			c-0.7-1.7-0.6-3.6,0.4-5.3c1-1.8,2.8-2.9,4.6-3.1c-1.8,1.1,1.5,7.8-3.9,8.6c-1.3,1.5-3.3,2.8-4.4,3.4c0.9,6.3,5.1,11.9,2.1,17.9
			l-2.2-0.3C24.5,31,24,27.9,23.2,24.6"/>
	</defs>
	<clipPath id="SVGID_00000014632709876023022050000002861162558932816027_">
		<use xlink:href="#SVGID_1_"  style="overflow:visible;"/>
	</clipPath>
	
		<linearGradient id="SVGID_00000178202959818485475090000014280105504211147433_" gradientUnits="userSpaceOnUse" x1="35.5535" y1="24.946" x2="10.0901" y2="14.7228">
		<stop  offset="0" style="stop-color:#045304"/>
		<stop  offset="1" style="stop-color:#B0F122"/>
	</linearGradient>
	
		<rect x="11" y="4.5" style="clip-path:url(#SVGID_00000014632709876023022050000002861162558932816027_);fill:url(#SVGID_00000178202959818485475090000014280105504211147433_);" width="21.9" height="29.9"/>
</g>
<g>
	<defs>
		<path id="SVGID_00000020375856282760958000000014224234650374830759_" d="M2.5,24.7c0.2,0,0.4,0,0.7,0c0.3,0,0.6,0,0.7,0
			c5.3,0,10.1,2.2,13.6,5.6c3.5,3.5,5.6,8.3,5.6,13.6c0,0.4,0,0.7,0,1.1c0,0.4-0.1,0.8-0.1,1.1l-2.4-0.3c0-0.4,0.1-0.7,0.1-1
			c0-0.3,0-0.6,0-1c0-4.6-1.9-8.9-4.9-11.9c-3-3-7.3-4.9-11.9-4.9c-0.3,0-0.5,0-0.6,0c-0.2,0-0.4,0-0.6,0L2.5,24.7z"/>
	</defs>
	<clipPath id="SVGID_00000056395834917113140890000001792958464472689537_">
		<use xlink:href="#SVGID_00000020375856282760958000000014224234650374830759_"  style="overflow:visible;"/>
	</clipPath>
	
		<linearGradient id="SVGID_00000062893647671923687570000010409985459025770657_" gradientUnits="userSpaceOnUse" x1="25.374" y1="43.7844" x2="0.8959" y2="27.4092">
		<stop  offset="0" style="stop-color:#045304"/>
		<stop  offset="1" style="stop-color:#B0F122"/>
	</linearGradient>
	
		<rect x="2.5" y="24.7" style="clip-path:url(#SVGID_00000056395834917113140890000001792958464472689537_);fill:url(#SVGID_00000062893647671923687570000010409985459025770657_);" width="20.7" height="21.5"/>
</g>
<g>
	<defs>
		<path id="SVGID_00000172407925687503298410000007652312719364966798_" d="M2.6,28.8c0.2,0,0.5,0,0.7,0c0.3,0,0.5,0,0.7,0
			c4.2,0,8,1.7,10.7,4.4c2.7,2.7,4.4,6.5,4.4,10.7c0,0.3,0,0.6,0,0.9c0,0.3,0,0.6-0.1,0.9l-2.4-0.3c0-0.3,0.1-0.5,0.1-0.8
			c0-0.2,0-0.5,0-0.8c0-3.5-1.4-6.7-3.7-9c-2.3-2.3-5.5-3.7-9-3.7c-0.2,0-0.4,0-0.6,0c-0.2,0-0.4,0-0.6,0L2.6,28.8z"/>
	</defs>
	<clipPath id="SVGID_00000145056655749667960660000000270337714098047872_">
		<use xlink:href="#SVGID_00000172407925687503298410000007652312719364966798_"  style="overflow:visible;"/>
	</clipPath>
	
		<linearGradient id="SVGID_00000005978613898039515400000001904831707613960621_" gradientUnits="userSpaceOnUse" x1="20.7915" y1="43.9315" x2="1.3902" y2="30.7717">
		<stop  offset="0" style="stop-color:#045304"/>
		<stop  offset="1" style="stop-color:#B0F122"/>
	</linearGradient>
	
		<rect x="2.6" y="28.7" style="clip-path:url(#SVGID_00000145056655749667960660000000270337714098047872_);fill:url(#SVGID_00000005978613898039515400000001904831707613960621_);" width="16.6" height="17"/>
</g>
<g>
	<defs>
		<path id="SVGID_00000127766367971906166670000011985290438683071907_" d="M2.9,32.2c0.2,0,0.4,0,0.5,0c0.2,0,0.4,0,0.5,0
			c3.3,0,6.2,1.3,8.3,3.5c2.1,2.1,3.5,5.1,3.5,8.3c0,0,0,0.2,0,0.4c0,0.2,0,0.3,0,0.4l-2.4-0.2c0-0.1,0-0.2,0-0.3c0,0,0-0.1,0-0.3
			c0-2.6-1.1-4.9-2.7-6.6c-1.7-1.7-4-2.7-6.6-2.7c-0.2,0-0.3,0-0.4,0c-0.2,0-0.3,0-0.4,0L2.9,32.2z"/>
	</defs>
	<clipPath id="SVGID_00000134238733243376381220000007721932901186919839_">
		<use xlink:href="#SVGID_00000127766367971906166670000011985290438683071907_"  style="overflow:visible;"/>
	</clipPath>
	
		<linearGradient id="SVGID_00000062871011722224171320000017934610039034551974_" gradientUnits="userSpaceOnUse" x1="16.8019" y1="43.703" x2="2.1988" y2="33.3007">
		<stop  offset="0" style="stop-color:#045304"/>
		<stop  offset="1" style="stop-color:#B0F122"/>
	</linearGradient>
	
		<rect x="2.9" y="32.1" style="clip-path:url(#SVGID_00000134238733243376381220000007721932901186919839_);fill:url(#SVGID_00000062871011722224171320000017934610039034551974_);" width="12.9" height="12.6"/>
</g>
<g>
	<defs>
		<path id="SVGID_00000150807692091996941050000011542845316003037833_" d="M46.4,22.7c-0.3,0-0.6-0.1-1-0.1c-0.3,0-0.6,0-1,0
			c-4.1,0-8,1.2-11.3,3.3c-3.3,2.1-6.1,5.1-7.8,8.8l-2.2-1c2-4.1,5-7.5,8.7-9.8c3.7-2.3,8-3.6,12.6-3.6c0.3,0,0.7,0,1.1,0
			c0.3,0,0.7,0,1.1,0.1L46.4,22.7z"/>
	</defs>
	<clipPath id="SVGID_00000029724318198261137250000001258657389506805681_">
		<use xlink:href="#SVGID_00000150807692091996941050000011542845316003037833_"  style="overflow:visible;"/>
	</clipPath>
	
		<linearGradient id="SVGID_00000090269214077776016950000004356722952912954511_" gradientUnits="userSpaceOnUse" x1="43.895" y1="37.6611" x2="26.2557" y2="17.7322">
		<stop  offset="0" style="stop-color:#045304"/>
		<stop  offset="1" style="stop-color:#B0F122"/>
	</linearGradient>
	
		<rect x="23.1" y="20.2" style="clip-path:url(#SVGID_00000029724318198261137250000001258657389506805681_);fill:url(#SVGID_00000090269214077776016950000004356722952912954511_);" width="23.5" height="14.5"/>
</g>
<g>
	<defs>
		<path id="SVGID_00000036956356642002005330000005807222493778710430_" d="M45.7,27.1c-0.3,0-0.5,0-0.6,0c-0.1,0-0.4,0-0.6,0
			c-4.6,0-8.9,1.9-11.9,4.9c-3,3-4.9,7.3-4.9,11.9c0,0.4,0,0.7,0,1c0,0.3,0,0.7,0.1,1l-2.4,0.3c0-0.4-0.1-0.7-0.1-1.1
			c0-0.4,0-0.8,0-1.1c0-5.3,2.2-10.1,5.6-13.6c3.5-3.5,8.3-5.6,13.6-5.6c0.2,0,0.4,0,0.7,0c0.3,0,0.5,0,0.7,0L45.7,27.1z"/>
	</defs>
	<clipPath id="SVGID_00000105423484817929189290000007774124631419269813_">
		<use xlink:href="#SVGID_00000036956356642002005330000005807222493778710430_"  style="overflow:visible;"/>
	</clipPath>
	
		<linearGradient id="SVGID_00000112616708975066754200000010795815329010338491_" gradientUnits="userSpaceOnUse" x1="48.0791" y1="43.7853" x2="23.6111" y2="27.4102">
		<stop  offset="0" style="stop-color:#045304"/>
		<stop  offset="1" style="stop-color:#B0F122"/>
	</linearGradient>
	
		<rect x="25.2" y="24.7" style="clip-path:url(#SVGID_00000105423484817929189290000007774124631419269813_);fill:url(#SVGID_00000112616708975066754200000010795815329010338491_);" width="20.7" height="21.5"/>
</g>
<g>
	<defs>
		<path id="SVGID_00000145763290454264261390000016764383972752191383_" d="M45.6,31.2c-0.2,0-0.4,0-0.6,0c-0.1,0-0.3,0-0.6,0
			c-3.5,0-6.7,1.4-9,3.7c-2.3,2.3-3.7,5.5-3.7,9c0,0.3,0,0.5,0,0.8c0,0.2,0,0.5,0.1,0.8l-2.4,0.3c0-0.3-0.1-0.6-0.1-0.9
			c0-0.3,0-0.6,0-0.9c0-4.2,1.7-8,4.4-10.7c2.7-2.7,6.5-4.4,10.7-4.4c0.2,0,0.4,0,0.7,0c0.2,0,0.5,0,0.7,0L45.6,31.2z"/>
	</defs>
	<clipPath id="SVGID_00000051362324883768921910000002601839331284487562_">
		<use xlink:href="#SVGID_00000145763290454264261390000016764383972752191383_"  style="overflow:visible;"/>
	</clipPath>
	
		<linearGradient id="SVGID_00000073700918450103765790000007854906823798503816_" gradientUnits="userSpaceOnUse" x1="47.4787" y1="43.9322" x2="28.0774" y2="30.7723">
		<stop  offset="0" style="stop-color:#045304"/>
		<stop  offset="1" style="stop-color:#B0F122"/>
	</linearGradient>
	
		<rect x="29.3" y="28.7" style="clip-path:url(#SVGID_00000051362324883768921910000002601839331284487562_);fill:url(#SVGID_00000073700918450103765790000007854906823798503816_);" width="16.6" height="17"/>
</g>
<g>
	<defs>
		<path id="SVGID_00000051366272816656407470000013169089802601985200_" d="M45.3,34.5c-0.1,0-0.3,0-0.4,0c-0.1,0-0.2,0-0.4,0
			c-2.6,0-4.9,1.1-6.6,2.7c-1.7,1.7-2.7,4-2.7,6.6c0,0.2,0,0.3,0,0.3c0,0.1,0,0.2,0,0.3l-2.4,0.2c0-0.1,0-0.2,0-0.4
			c0-0.2,0-0.3,0-0.4c0-3.3,1.3-6.2,3.5-8.3c2.1-2.1,5.1-3.5,8.3-3.5c0.1,0,0.3,0,0.5,0c0.2,0,0.3,0,0.5,0L45.3,34.5z"/>
	</defs>
	<clipPath id="SVGID_00000087383231830939528070000005359110068645665446_">
		<use xlink:href="#SVGID_00000051366272816656407470000013169089802601985200_"  style="overflow:visible;"/>
	</clipPath>
	
		<linearGradient id="SVGID_00000084521143630579843350000005259904413158413737_" gradientUnits="userSpaceOnUse" x1="46.5655" y1="43.7029" x2="31.9623" y2="33.3006">
		<stop  offset="0" style="stop-color:#045304"/>
		<stop  offset="1" style="stop-color:#B0F122"/>
	</linearGradient>
	
		<rect x="32.7" y="32.1" style="clip-path:url(#SVGID_00000087383231830939528070000005359110068645665446_);fill:url(#SVGID_00000084521143630579843350000005259904413158413737_);" width="12.9" height="12.6"/>
</g>
<g>
	<defs>
		<path id="SVGID_00000038371140182954666500000003343753439234177979_" d="M1.8,20.4c0.4,0,0.7-0.1,1.1-0.1c0.4,0,0.8,0,1.1,0
			c6.5,0,12.4,2.6,16.7,6.9c4.3,4.3,6.9,10.2,6.9,16.7c0,0.4,0,0.9,0,1.4c0,0.5-0.1,1-0.1,1.4l-2.4-0.3c0.1-0.4,0.1-0.9,0.1-1.3
			c0-0.4,0-0.8,0-1.3c0-5.9-2.4-11.2-6.2-15c-3.8-3.8-9.2-6.2-15-6.2c-0.4,0-0.7,0-1,0c-0.3,0-0.7,0-1,0.1L1.8,20.4z"/>
	</defs>
	<clipPath id="SVGID_00000075151346901629390280000012550325127451283599_">
		<use xlink:href="#SVGID_00000038371140182954666500000003343753439234177979_"  style="overflow:visible;"/>
	</clipPath>
	
		<linearGradient id="SVGID_00000014591938852450339690000004421662681166663326_" gradientUnits="userSpaceOnUse" x1="30.1737" y1="43.957" x2="-5.791136e-02" y2="23.4509">
		<stop  offset="0" style="stop-color:#045304"/>
		<stop  offset="1" style="stop-color:#B0F122"/>
	</linearGradient>
	
		<rect x="1.8" y="20.2" style="clip-path:url(#SVGID_00000075151346901629390280000012550325127451283599_);fill:url(#SVGID_00000014591938852450339690000004421662681166663326_);" width="25.8" height="26.5"/>
</g>
<g>
	<defs>
		<path id="SVGID_00000178181330605666658370000003646539357457143194_" d="M39.2,9.1c-3.8-3.8-9.2-6.2-15-6.2
			c-5.9,0-11.2,2.4-15,6.2C5.4,13,3,18.3,3,24.2s2.4,11.2,6.2,15c3.8,3.8,9.2,6.2,15,6.2c5.9,0,11.2-2.4,15-6.2
			c3.8-3.8,6.2-9.2,6.2-15S43.1,13,39.2,9.1 M24.2,0.5c6.5,0,12.4,2.6,16.7,6.9c4.3,4.3,6.9,10.2,6.9,16.7c0,6.5-2.6,12.4-6.9,16.7
			c-4.3,4.3-10.2,6.9-16.7,6.9c-6.5,0-12.4-2.6-16.7-6.9c-4.3-4.3-6.9-10.2-6.9-16.7c0-6.5,2.6-12.4,6.9-16.7
			C11.8,3.2,17.7,0.5,24.2,0.5z"/>
	</defs>
	<clipPath id="SVGID_00000017495482397803190570000007204053721433231744_">
		<use xlink:href="#SVGID_00000178181330605666658370000003646539357457143194_"  style="overflow:visible;"/>
	</clipPath>
	
		<linearGradient id="SVGID_00000069392643336362919960000003906081458953463947_" gradientUnits="userSpaceOnUse" x1="24.4078" y1="49.0818" x2="24.0395" y2="0.5232">
		<stop  offset="0" style="stop-color:#3F1A00"/>
		<stop  offset="1" style="stop-color:#FFD500"/>
	</linearGradient>
	
		<rect x="0.6" y="0.5" style="clip-path:url(#SVGID_00000017495482397803190570000007204053721433231744_);fill:url(#SVGID_00000069392643336362919960000003906081458953463947_);" width="47.3" height="47.3"/>
</g>
<g>
	<g>
		<path class="st10" d="M57.7,22.9c-1.3-1-2.1-2.4-2.2-4.3h5.3c0.1,0.6,0.2,1.1,0.6,1.4c0.3,0.3,0.7,0.4,1.2,0.4
			c0.5,0,0.8-0.1,1.1-0.3c0.3-0.2,0.4-0.6,0.4-1c0-0.5-0.2-0.9-0.7-1.2c-0.5-0.3-1.3-0.6-2.4-1c-1.2-0.4-2.1-0.8-2.8-1.1
			c-0.7-0.4-1.3-0.9-1.9-1.6c-0.5-0.7-0.8-1.6-0.8-2.8c0-1.2,0.3-2.1,0.9-3c0.6-0.8,1.4-1.4,2.4-1.9C59.9,6.2,61,6,62.3,6
			c2.1,0,3.8,0.5,5,1.5c1.2,1,1.9,2.3,2,4.1h-5.4c0-0.6-0.2-1-0.5-1.2c-0.3-0.3-0.7-0.4-1.2-0.4c-0.4,0-0.7,0.1-0.9,0.3
			c-0.2,0.2-0.4,0.5-0.4,1c0,0.3,0.1,0.6,0.4,0.9c0.3,0.2,0.6,0.5,1,0.6s1,0.4,1.7,0.7c1.1,0.4,2.1,0.8,2.8,1.2
			c0.7,0.4,1.4,0.9,1.9,1.6c0.5,0.7,0.8,1.6,0.8,2.6c0,1.1-0.3,2-0.8,2.9c-0.5,0.8-1.3,1.5-2.3,2s-2.2,0.7-3.6,0.7
			C60.7,24.4,59,23.9,57.7,22.9z"/>
		<path class="st10" d="M76.8,10.2v3h5.7V17h-5.7v3.3h6.5v4H71.8V6.3h11.5v3.9H76.8z"/>
		<path class="st10" d="M106.7,6.3v17.9h-5v-9.9l-3.4,9.9h-4.2l-3.4-10v10h-5V6.3h6l4.5,11.7l4.4-11.7H106.7z"/>
		<path class="st10" d="M114.6,6.3v17.9h-5V6.3H114.6z"/>
		<path class="st10" d="M122.4,20.4h5.6v3.8h-10.6V6.3h5V20.4z"/>
		<path class="st10" d="M134.9,20.4h5.6v3.8h-10.6V6.3h5V20.4z"/>
		<path class="st10" d="M147.4,10.2v3h5.7V17h-5.7v3.3h6.5v4h-11.5V6.3h11.5v3.9H147.4z"/>
		<path class="st10" d="M165.4,24.2l-3.6-6.6h-0.5v6.6h-5V6.3h7.9c1.4,0,2.7,0.3,3.7,0.8c1,0.5,1.8,1.2,2.3,2.1
			c0.5,0.9,0.8,1.9,0.8,2.9c0,1.2-0.3,2.3-1,3.2c-0.7,0.9-1.7,1.6-2.9,2l4,7H165.4z M161.3,14.2h2.5c1.4,0,2-0.6,2-1.9
			c0-0.6-0.2-1-0.5-1.4c-0.3-0.3-0.9-0.5-1.5-0.5h-2.5V14.2z"/>
		<path class="st10" d="M178.1,6.3v17.9h-5V6.3H178.1z"/>
		<path class="st10" d="M192.3,21.3H186l-1,2.9h-5.2l6.5-17.9h5.8l6.5,17.9h-5.3L192.3,21.3z M191.1,17.5l-1.9-5.8l-1.9,5.8H191.1z"
			/>
	</g>
	<g>
		<path class="st10" d="M69.8,32.2v3.4h3.6v1h-3.6v3.4h4v1h-5.3v-9.8h5.3v1H69.8z"/>
		<path class="st10" d="M81.3,40h3.4v1H80v-9.8h1.3V40z"/>
		<path class="st10" d="M100,40.7c-0.5-0.2-0.9-0.5-1.2-1c-0.3-0.4-0.4-0.9-0.4-1.4h1.4c0,0.5,0.2,0.9,0.6,1.2
			c0.3,0.3,0.8,0.5,1.4,0.5c0.6,0,1.1-0.2,1.4-0.5c0.4-0.3,0.5-0.7,0.5-1.2c0-0.4-0.1-0.7-0.3-0.9s-0.5-0.4-0.8-0.5
			c-0.3-0.1-0.7-0.3-1.2-0.4c-0.6-0.2-1.2-0.3-1.6-0.5c-0.4-0.2-0.7-0.4-1-0.8c-0.3-0.4-0.4-0.8-0.4-1.5c0-0.5,0.1-1,0.4-1.4
			c0.3-0.4,0.7-0.7,1.1-1s1.1-0.3,1.7-0.3c0.9,0,1.7,0.2,2.3,0.7s0.9,1.1,1,1.8h-1.4c0-0.4-0.2-0.7-0.6-1c-0.3-0.3-0.8-0.4-1.4-0.4
			c-0.5,0-1,0.1-1.3,0.4c-0.3,0.3-0.5,0.7-0.5,1.2c0,0.4,0.1,0.6,0.3,0.9c0.2,0.2,0.4,0.4,0.7,0.5c0.3,0.1,0.7,0.3,1.2,0.4
			c0.6,0.2,1.2,0.4,1.6,0.5c0.4,0.2,0.7,0.4,1,0.8c0.3,0.4,0.4,0.8,0.4,1.5c0,0.5-0.1,0.9-0.4,1.3c-0.3,0.4-0.6,0.8-1.1,1
			s-1.1,0.4-1.8,0.4C101.1,41.1,100.6,40.9,100,40.7z"/>
		<path class="st10" d="M112.4,32.2v3.4h3.6v1h-3.6v3.4h4v1h-5.3v-9.8h5.3v1H112.4z"/>
		<path class="st10" d="M130.3,41H129l-5.1-7.8V41h-1.3v-9.8h1.3l5.1,7.8v-7.8h1.3V41z"/>
		<path class="st10" d="M142.5,31.8c0.8,0.4,1.4,1,1.8,1.7c0.4,0.7,0.6,1.6,0.6,2.6s-0.2,1.9-0.6,2.6c-0.4,0.7-1,1.3-1.8,1.7
			s-1.7,0.6-2.8,0.6h-3v-9.8h3C140.8,31.2,141.7,31.4,142.5,31.8z M142.6,38.9c0.7-0.7,1-1.6,1-2.9s-0.3-2.2-1-2.9s-1.6-1-2.9-1
			h-1.8V40h1.8C141,40,141.9,39.6,142.6,38.9z"/>
		<path class="st10" d="M152.1,32.2v3.4h3.6v1h-3.6v3.4h4v1h-5.3v-9.8h5.3v1H152.1z"/>
		<path class="st10" d="M167.4,41l-2.3-4h-1.5v4h-1.3v-9.8h3.2c0.7,0,1.4,0.1,1.9,0.4c0.5,0.3,0.9,0.6,1.1,1s0.4,0.9,0.4,1.5
			c0,0.7-0.2,1.3-0.6,1.8c-0.4,0.5-1,0.9-1.7,1l2.5,4.1H167.4z M163.5,35.9h1.9c0.7,0,1.2-0.2,1.6-0.5c0.3-0.3,0.5-0.8,0.5-1.4
			c0-0.6-0.2-1-0.5-1.4s-0.9-0.5-1.6-0.5h-1.9V35.9z"/>
		<path class="st10" d="M176.9,40.4c-0.8-0.4-1.3-1-1.8-1.8s-0.7-1.6-0.7-2.6s0.2-1.8,0.7-2.6s1-1.4,1.8-1.8
			c0.7-0.4,1.6-0.6,2.5-0.6c0.9,0,1.8,0.2,2.5,0.6c0.7,0.4,1.3,1,1.8,1.8c0.4,0.8,0.6,1.6,0.6,2.6s-0.2,1.8-0.6,2.6
			c-0.4,0.8-1,1.4-1.8,1.8c-0.8,0.4-1.6,0.6-2.5,0.6C178.5,41.1,177.7,40.8,176.9,40.4z M181.3,39.4c0.5-0.3,1-0.8,1.3-1.3
			c0.3-0.6,0.5-1.3,0.5-2c0-0.8-0.2-1.4-0.5-2c-0.3-0.6-0.7-1-1.3-1.3s-1.2-0.5-1.8-0.5s-1.3,0.2-1.8,0.5s-1,0.8-1.3,1.3
			c-0.3,0.6-0.5,1.3-0.5,2c0,0.8,0.2,1.4,0.5,2c0.3,0.6,0.7,1,1.3,1.3s1.2,0.5,1.8,0.5S180.7,39.7,181.3,39.4z"/>
	</g>
</g>
</svg>
